<?xml version="1.0" encoding="UTF-8" standalone="no"?>
<!DOCTYPE svg PUBLIC "-//W3C//DTD SVG 1.1//EN" "http://www.w3.org/Graphics/SVG/1.1/DTD/svg11.dtd">
<svg width="100%" height="100%" viewBox="0 0 128 128" version="1.1" xmlns="http://www.w3.org/2000/svg" xmlns:xlink="http://www.w3.org/1999/xlink" xml:space="preserve" xmlns:serif="http://www.serif.com/" style="fill-rule:evenodd;clip-rule:evenodd;stroke-linecap:round;stroke-linejoin:round;">
    <g transform="matrix(13.692,0,0,13.692,-1695.59,-1509.76)">
        <path d="M132.496,114.905C132.496,114.926 132.497,114.947 132.497,114.968C132.497,117.154 130.698,118.952 128.513,118.952C126.327,118.952 124.529,117.154 124.529,114.968C124.529,114.947 124.529,114.926 124.529,114.905C124.563,112.744 126.351,110.984 128.513,110.984C130.674,110.984 132.462,112.744 132.496,114.905" style="fill:none;fill-rule:nonzero;stroke:black;stroke-width:1.03px;"/>
    </g>
    <g transform="matrix(13.692,0,0,13.692,-1695.59,-1509.76)">
        <path d="M132.49,114.905C132.49,117.087 130.694,118.883 128.512,118.883C126.33,118.883 124.534,117.087 124.534,114.905C124.534,112.723 126.33,110.928 128.512,110.928C130.693,110.928 132.489,112.723 132.489,114.905L132.49,114.905Z" style="fill-rule:nonzero;stroke:white;stroke-width:0.51px;"/>
    </g>
    <g transform="matrix(1.81137,0,0,1.81137,-51.934,-106.745)">
        <path d="M64,97.992C64,97.992 64,97.992 63.999,97.992C61.259,97.992 59.003,95.737 59.003,92.996C59.003,90.255 61.258,88 63.999,88C63.999,88 63.999,88 63.999,88C66.74,88 68.995,90.255 68.995,92.996C68.995,95.737 66.741,97.992 64,97.992M64,117.992C64,117.992 64,117.992 63.999,117.992C61.259,117.992 59.003,115.736 59.003,112.996C59.003,110.255 61.258,107.999 63.999,107.999C63.999,107.999 63.999,107.999 63.999,107.999C66.74,107.999 68.996,110.255 68.996,112.996C68.996,115.736 66.741,117.992 64,117.992" style="fill:rgb(51,51,51);fill-rule:nonzero;"/>
    </g>
</svg>
