<?xml version="1.0" encoding="UTF-8" standalone="no"?>
<!DOCTYPE svg PUBLIC "-//W3C//DTD SVG 1.1//EN" "http://www.w3.org/Graphics/SVG/1.1/DTD/svg11.dtd">
<svg width="100%" height="100%" viewBox="0 0 128 128" version="1.1" xmlns="http://www.w3.org/2000/svg" xmlns:xlink="http://www.w3.org/1999/xlink" xml:space="preserve" xmlns:serif="http://www.serif.com/" style="fill-rule:evenodd;clip-rule:evenodd;stroke-linecap:round;stroke-linejoin:round;">
    <rect x="0" y="0" width="128" height="128" style="fill:none;fill-rule:nonzero;"/>
    <path d="M77,46.717L77,111.289C77,118.31 71.309,124 64.289,124L63.711,124C56.69,124 51,118.309 51,111.29L51,46.718C51,39.698 56.691,34.007 63.71,34.007L64.289,34.007C71.309,34.007 77,39.698 77,46.717Z" style="fill-rule:nonzero;stroke:white;stroke-width:4px;"/>
    <path d="M64.008,52.004C64.008,52.004 64.007,52.004 64.007,52.004C61.267,52.004 59.012,49.749 59.012,47.009C59.012,47.009 59.012,47.006 59.012,47.005C59.012,44.266 61.266,42.012 64.005,42.012C64.006,42.012 64.007,42.012 64.008,42.012C66.749,42.012 69.004,44.267 69.004,47.008C69.004,49.749 66.749,52.004 64.008,52.004M64.008,68.004C64.007,68.004 64.006,68.004 64.005,68.004C61.266,68.004 59.012,65.75 59.012,63.011C59.012,63.01 59.012,63.009 59.012,63.008C59.012,60.267 61.267,58.012 64.008,58.012C66.749,58.012 69.004,60.267 69.004,63.008C69.004,63.008 69.004,63.009 69.004,63.009C69.004,65.749 66.749,68.004 64.009,68.004C64.009,68.004 64.008,68.004 64.008,68.004M64.008,84.008C64.008,84.008 64.007,84.008 64.007,84.008C61.267,84.008 59.012,81.753 59.012,79.013C59.012,79.013 59.012,79.01 59.012,79.009C59.012,76.27 61.266,74.016 64.005,74.016C64.006,74.016 64.007,74.016 64.008,74.016C66.749,74.016 69.004,76.271 69.004,79.012C69.004,81.753 66.749,84.008 64.008,84.008M64.008,100.004L64.008,100.004C61.267,100.004 59.012,97.749 59.012,95.008C59.012,95.007 59.012,95.005 59.012,95.004C59.012,92.263 61.267,90.008 64.008,90.008C66.749,90.008 69.004,92.263 69.004,95.004C69.004,97.766 66.766,100.004 64.008,100.004" style="fill:rgb(51,51,51);fill-rule:nonzero;"/>
    <path d="M64.008,116.004C64.008,116.004 64.008,116.004 64.007,116.004C61.267,116.004 59.012,113.749 59.012,111.009C59.012,108.268 61.267,106.013 64.007,106.013C66.747,106.013 69.002,108.268 69.002,111.008C69.002,113.748 66.747,116.003 64.007,116.003L64.008,116.004Z" style="fill:rgb(255,255,0);fill-rule:nonzero;"/>
    <g transform="matrix(7.36126,0,0,7.36126,47.118,1.408)">
        <path d="M5.65,0.529C4.718,0.529 3.968,1.279 3.968,2.21L3.968,2.646L2.248,2.646C1.296,2.646 0.528,3.53 0.528,4.629L0.528,14.684C0.528,15.784 1.296,16.668 2.248,16.668C3.202,16.668 3.969,15.784 3.969,14.684L3.969,8.202L5.728,8.202C6.658,8.202 7.408,7.452 7.408,6.521L7.408,2.21C7.408,1.279 6.658,0.529 5.728,0.529L5.65,0.529Z" style="fill:none;fill-rule:nonzero;stroke:black;stroke-width:1.06px;"/>
        <path d="M5.649,0.529C4.718,0.529 3.968,1.279 3.968,2.21L3.968,2.646L2.248,2.646C1.295,2.646 0.528,3.53 0.528,4.629L0.528,14.684C0.528,15.784 1.295,16.668 2.248,16.668C3.201,16.668 3.968,15.784 3.968,14.684L3.968,8.202L5.727,8.202C6.658,8.202 7.408,7.452 7.408,6.521L7.408,2.21C7.408,1.279 6.658,0.529 5.727,0.529L5.649,0.529Z" style="fill-rule:nonzero;stroke:white;stroke-width:0.53px;"/>
        <circle cx="5.688" cy="2.249" r="0.661" style="fill:rgb(51,51,51);"/>
        <circle cx="2.249" cy="4.365" r="0.661" style="fill:rgb(51,51,51);"/>
        <circle cx="2.249" cy="6.482" r="0.661" style="fill:rgb(51,51,51);"/>
        <circle cx="2.249" cy="8.598" r="0.661" style="fill:rgb(51,51,51);"/>
        <circle cx="2.249" cy="10.715" r="0.661" style="fill:rgb(51,51,51);"/>
        <circle cx="2.249" cy="12.832" r="0.661" style="fill:rgb(51,51,51);"/>
        <circle cx="2.249" cy="14.948" r="0.661" style="fill:rgb(51,51,51);"/>
        <circle cx="5.689" cy="4.365" r="0.661" style="fill:rgb(51,51,51);"/>
        <circle cx="5.688" cy="6.482" r="0.661" style="fill:rgb(51,51,51);"/>
    </g>
</svg>
