<?xml version="1.0" encoding="UTF-8" standalone="no"?>
<!DOCTYPE svg PUBLIC "-//W3C//DTD SVG 1.1//EN" "http://www.w3.org/Graphics/SVG/1.1/DTD/svg11.dtd">
<svg width="100%" height="100%" viewBox="0 0 128 128" version="1.1" xmlns="http://www.w3.org/2000/svg" xmlns:xlink="http://www.w3.org/1999/xlink" xml:space="preserve" xmlns:serif="http://www.serif.com/" style="fill-rule:evenodd;clip-rule:evenodd;stroke-linecap:round;stroke-linejoin:round;">
    <rect x="0" y="0" width="128" height="128" style="fill:none;"/>
    <g transform="matrix(1,0,0,1,0,-0.049)">
        <path d="M77,46.717L77,111.289C77,118.31 71.309,124 64.289,124L63.711,124C56.69,124 51,118.309 51,111.29L51,46.718C51,39.698 56.691,34.007 63.71,34.007L64.289,34.007C71.309,34.007 77,39.698 77,46.717Z" style="fill-rule:nonzero;stroke:white;stroke-width:4px;"/>
    </g>
    <g transform="matrix(1,0,0,1,0,-0.049)">
        <path d="M64.008,52.004L64.007,52.004C61.267,52.004 59.012,49.749 59.012,47.009L59.012,47.005C59.012,44.266 61.266,42.012 64.005,42.012L64.008,42.012C66.749,42.012 69.004,44.267 69.004,47.008C69.004,49.749 66.749,52.004 64.008,52.004M64.008,68.004L64.005,68.004C61.266,68.004 59.012,65.75 59.012,63.011L59.012,63.008C59.012,60.267 61.267,58.012 64.008,58.012C66.749,58.012 69.004,60.267 69.004,63.008L69.004,63.009C69.004,65.749 66.749,68.004 64.009,68.004L64.008,68.004M64.008,84.008L64.007,84.008C61.267,84.008 59.012,81.753 59.012,79.013L59.012,79.009C59.012,76.27 61.266,74.016 64.005,74.016L64.008,74.016C66.749,74.016 69.004,76.271 69.004,79.012C69.004,81.753 66.749,84.008 64.008,84.008M64.008,100.004C61.267,100.004 59.012,97.749 59.012,95.008L59.012,95.004C59.012,92.263 61.267,90.008 64.008,90.008C66.749,90.008 69.004,92.263 69.004,95.004C69.004,97.766 66.766,100.004 64.008,100.004" style="fill:rgb(51,51,51);fill-rule:nonzero;"/>
    </g>
    <g transform="matrix(1,0,0,1,0,-0.049)">
        <path d="M64.008,116.004L64.007,116.004C61.267,116.004 59.012,113.749 59.012,111.009C59.012,108.268 61.267,106.013 64.007,106.013C66.747,106.013 69.002,108.268 69.002,111.008C69.002,113.748 66.747,116.003 64.007,116.003L64.008,116.004Z" style="fill:rgb(255,255,0);fill-rule:nonzero;"/>
    </g>
    <g transform="matrix(1,0,0,1,-42.498,-0.049)">
        <path d="M150.43,32.771C150.43,39.82 144.708,45.542 137.659,45.542L106.229,45.542C99.18,45.542 93.458,39.82 93.458,32.771C93.458,25.722 99.18,20 106.229,20L137.659,20C144.708,20 150.43,25.722 150.43,32.771Z" style="fill:none;stroke:black;stroke-width:7.86px;"/>
        <path d="M119,32.771L119,111.35C119,118.399 113.278,124.121 106.229,124.121C99.18,124.121 93.458,118.399 93.458,111.35L93.458,32.771C93.458,25.722 99.18,20 106.229,20C113.278,20 119,25.722 119,32.771Z" style="fill:none;stroke:black;stroke-width:7.86px;"/>
        <path d="M137.986,20L105.915,20C99.085,20 93.465,25.62 93.465,32.45L93.465,33.068C93.465,33.32 93.48,33.573 93.495,33.833C93.48,34.13 93.458,34.427 93.458,34.739L93.458,109.382C93.458,117.55 99.16,124.113 106.229,124.113C113.305,124.113 119,117.543 119,109.383L119,45.526L137.99,45.526C144.814,45.526 150.43,39.91 150.43,33.086L150.43,32.444C150.43,25.617 144.813,20 137.986,20Z" style="fill-rule:nonzero;stroke:white;stroke-width:3.93px;"/>
        <circle cx="137.666" cy="32.771" r="4.908" style="fill:rgb(51,51,51);"/>
        <circle cx="106.229" cy="32.771" r="4.908" style="fill:rgb(51,51,51);"/>
        <circle cx="106.229" cy="48.49" r="4.908" style="fill:rgb(51,51,51);"/>
        <circle cx="106.229" cy="64.201" r="4.908" style="fill:rgb(51,51,51);"/>
        <circle cx="106.229" cy="79.92" r="4.908" style="fill:rgb(51,51,51);"/>
        <circle cx="106.229" cy="95.639" r="4.908" style="fill:rgb(51,51,51);"/>
        <circle cx="106.229" cy="111.35" r="4.908" style="fill:rgb(51,51,51);"/>
    </g>
</svg>
