<?xml version="1.0" encoding="UTF-8" standalone="no"?>
<!DOCTYPE svg PUBLIC "-//W3C//DTD SVG 1.1//EN" "http://www.w3.org/Graphics/SVG/1.1/DTD/svg11.dtd">
<svg width="100%" height="100%" viewBox="0 0 128 128" version="1.1" xmlns="http://www.w3.org/2000/svg" xmlns:xlink="http://www.w3.org/1999/xlink" xml:space="preserve" xmlns:serif="http://www.serif.com/" style="fill-rule:evenodd;clip-rule:evenodd;stroke-linecap:round;stroke-linejoin:round;">
    <g transform="matrix(13.692,0,0,13.692,-1695.59,-1509.76)">
        <path d="M132.496,114.905C132.496,114.926 132.497,114.947 132.497,114.968C132.497,117.154 130.698,118.952 128.513,118.952C126.327,118.952 124.529,117.154 124.529,114.968C124.529,114.947 124.529,114.926 124.529,114.905C124.563,112.744 126.351,110.984 128.513,110.984C130.674,110.984 132.462,112.744 132.496,114.905" style="fill:none;fill-rule:nonzero;stroke:black;stroke-width:1.03px;"/>
    </g>
    <g transform="matrix(13.692,0,0,13.692,-1695.59,-1509.76)">
        <path d="M132.49,114.905C132.49,117.087 130.694,118.883 128.512,118.883C126.33,118.883 124.534,117.087 124.534,114.905C124.534,112.723 126.33,110.928 128.512,110.928C130.693,110.928 132.489,112.723 132.489,114.905L132.49,114.905Z" style="fill-rule:nonzero;stroke:white;stroke-width:0.51px;"/>
    </g>
    <g transform="matrix(1.81137,0,0,1.81137,-51.934,-106.745)">
        <path d="M80.004,89.992C77.263,89.992 75.008,87.737 75.008,84.996C75.008,82.255 77.263,80 80.004,80C82.745,80 85,82.255 85,84.996C85,87.737 82.745,89.992 80.004,89.992" style="fill:rgb(51,51,51);fill-rule:nonzero;"/>
    </g>
    <g transform="matrix(1.81137,0,0,1.81137,-51.934,-106.745)">
        <path d="M80.004,105.996C77.263,105.996 75.008,103.741 75.008,101C75.008,98.259 77.263,96.004 80.004,96.004C82.745,96.004 85,98.259 85,101C85,103.741 82.745,105.996 80.004,105.996" style="fill:rgb(51,51,51);fill-rule:nonzero;"/>
    </g>
    <g transform="matrix(1.81137,0,0,1.81137,-51.934,-106.745)">
        <path d="M64,97.992C64,97.992 64,97.992 63.999,97.992C61.259,97.992 59.003,95.737 59.003,92.996C59.003,90.255 61.258,88 63.999,88C63.999,88 63.999,88 63.999,88C66.74,88 68.995,90.255 68.995,92.996C68.995,95.737 66.741,97.992 64,97.992M64,117.992C64,117.992 64,117.992 63.999,117.992C61.259,117.992 59.003,115.736 59.003,112.996C59.003,110.255 61.258,107.999 63.999,107.999C63.999,107.999 63.999,107.999 63.999,107.999C66.74,107.999 68.996,110.255 68.996,112.996C68.996,115.736 66.741,117.992 64,117.992M47.996,89.992C45.255,89.992 43,87.737 43,84.996C43,82.255 45.255,80 47.996,80C50.737,80 52.992,82.255 52.992,84.996C52.992,87.737 50.737,89.992 47.996,89.992" style="fill:rgb(51,51,51);fill-rule:nonzero;"/>
    </g>
    <g transform="matrix(1.81137,0,0,1.81137,-51.934,-106.745)">
        <path d="M47.996,105.996C45.255,105.996 43,103.741 43,101C43,98.259 45.255,96.004 47.996,96.004C50.737,96.004 52.992,98.259 52.992,101C52.992,103.741 50.737,105.996 47.996,105.996" style="fill:rgb(51,51,51);fill-rule:nonzero;"/>
    </g>
</svg>
