<?xml version="1.0" encoding="UTF-8" standalone="no"?>
<!DOCTYPE svg PUBLIC "-//W3C//DTD SVG 1.1//EN" "http://www.w3.org/Graphics/SVG/1.1/DTD/svg11.dtd">
<svg width="100%" height="100%" viewBox="0 0 128 128" version="1.1" xmlns="http://www.w3.org/2000/svg" xmlns:xlink="http://www.w3.org/1999/xlink" xml:space="preserve" xmlns:serif="http://www.serif.com/" style="fill-rule:evenodd;clip-rule:evenodd;">
    <rect x="0" y="0" width="128" height="128" style="fill:none;fill-rule:nonzero;"/>
    <g transform="matrix(0.65419,0,0,0.65419,22.132,44.264)">
        <path d="M111.977,102.012C111.977,102.028 111.977,102.044 111.977,102.06C111.977,113.547 102.524,123 91.037,123C91.022,123 91.007,123 90.992,123L37.008,123C36.993,123 36.978,123 36.963,123C25.476,123 16.023,113.547 16.023,102.06C16.023,102.044 16.023,102.028 16.023,102.012C16.023,101.997 16.023,101.982 16.023,101.967C16.023,90.48 25.476,81.027 36.963,81.027C36.978,81.027 36.993,81.027 37.008,81.027L90.992,81.027C91.007,81.027 91.022,81.027 91.037,81.027C102.524,81.027 111.977,90.48 111.977,101.967C111.977,101.982 111.977,101.997 111.977,102.012Z" style="fill-rule:nonzero;stroke:black;stroke-width:10px;"/>
    </g>
    <g transform="matrix(0.65419,0,0,0.65419,22.132,44.264)">
        <path d="M111.977,102.012C111.977,102.028 111.977,102.044 111.977,102.06C111.977,113.547 102.524,123 91.037,123C91.022,123 91.007,123 90.992,123L37.008,123C36.993,123 36.978,123 36.963,123C25.476,123 16.023,113.547 16.023,102.06C16.023,102.044 16.023,102.028 16.023,102.012C16.023,101.997 16.023,101.982 16.023,101.967C16.023,90.48 25.476,81.027 36.963,81.027C36.978,81.027 36.993,81.027 37.008,81.027L90.992,81.027C91.007,81.027 91.022,81.027 91.037,81.027C102.524,81.027 111.977,90.48 111.977,101.967C111.977,101.982 111.977,101.997 111.977,102.012Z" style="fill-rule:nonzero;stroke:white;stroke-width:4.26px;"/>
    </g>
    <g transform="matrix(0.65419,0,0,0.65419,22.132,44.264)">
        <path d="M37.008,109.379C33.014,109.379 29.727,106.092 29.727,102.098C29.727,98.104 33.014,94.817 37.008,94.817C41.002,94.817 44.289,98.104 44.289,102.098C44.289,106.092 41.003,109.378 37.009,109.378C37.009,109.378 37.008,109.378 37.008,109.378L37.008,109.379Z" style="fill:white;fill-rule:nonzero;"/>
    </g>
</svg>
