<?xml version="1.0" encoding="UTF-8" standalone="no"?>
<!DOCTYPE svg PUBLIC "-//W3C//DTD SVG 1.1//EN" "http://www.w3.org/Graphics/SVG/1.1/DTD/svg11.dtd">
<svg width="100%" height="100%" viewBox="0 0 128 128" version="1.1" xmlns="http://www.w3.org/2000/svg" xmlns:xlink="http://www.w3.org/1999/xlink" xml:space="preserve" xmlns:serif="http://www.serif.com/" style="fill-rule:evenodd;clip-rule:evenodd;stroke-linecap:round;stroke-linejoin:round;">
    <rect x="0" y="0" width="128" height="128" style="fill:none;fill-rule:nonzero;"/>
    <g transform="matrix(1,0,0,1,0,-0.049)">
        <path d="M77,46.717L77,111.289C77,118.31 71.309,124 64.289,124L63.711,124C56.69,124 51,118.309 51,111.29L51,46.718C51,39.698 56.691,34.007 63.71,34.007L64.289,34.007C71.309,34.007 77,39.698 77,46.717Z" style="fill-rule:nonzero;stroke:white;stroke-width:4px;"/>
    </g>
    <g transform="matrix(1,0,0,1,0,-0.049)">
        <path d="M64.008,52.004C64.008,52.004 64.007,52.004 64.007,52.004C61.267,52.004 59.012,49.749 59.012,47.009C59.012,47.009 59.012,47.006 59.012,47.005C59.012,44.266 61.266,42.012 64.005,42.012C64.006,42.012 64.007,42.012 64.008,42.012C66.749,42.012 69.004,44.267 69.004,47.008C69.004,49.749 66.749,52.004 64.008,52.004M64.008,68.004C64.007,68.004 64.006,68.004 64.005,68.004C61.266,68.004 59.012,65.75 59.012,63.011C59.012,63.01 59.012,63.009 59.012,63.008C59.012,60.267 61.267,58.012 64.008,58.012C66.749,58.012 69.004,60.267 69.004,63.008C69.004,63.008 69.004,63.009 69.004,63.009C69.004,65.749 66.749,68.004 64.009,68.004C64.009,68.004 64.008,68.004 64.008,68.004M64.008,84.008C64.008,84.008 64.007,84.008 64.007,84.008C61.267,84.008 59.012,81.753 59.012,79.013C59.012,79.013 59.012,79.01 59.012,79.009C59.012,76.27 61.266,74.016 64.005,74.016C64.006,74.016 64.007,74.016 64.008,74.016C66.749,74.016 69.004,76.271 69.004,79.012C69.004,81.753 66.749,84.008 64.008,84.008M64.008,100.004L64.008,100.004C61.267,100.004 59.012,97.749 59.012,95.008C59.012,95.007 59.012,95.005 59.012,95.004C59.012,92.263 61.267,90.008 64.008,90.008C66.749,90.008 69.004,92.263 69.004,95.004C69.004,97.766 66.766,100.004 64.008,100.004" style="fill:rgb(51,51,51);fill-rule:nonzero;"/>
    </g>
    <g transform="matrix(1,0,0,1,-42.498,-0.049)">
        <rect x="93.458" y="20" width="56.972" height="25.542" style="fill:none;stroke:black;stroke-width:7.86px;"/>
        <rect x="93.458" y="20" width="25.542" height="104.121" style="fill:none;stroke:black;stroke-width:7.86px;"/>
        <path d="M105.94,20C105.932,20 105.923,20 105.915,20C99.085,20 93.465,25.62 93.465,32.45C93.465,32.458 93.465,32.466 93.465,32.474L93.465,33.068C93.465,33.32 93.48,33.573 93.495,33.833C93.48,34.13 93.458,34.427 93.458,34.739L93.458,109.382C93.458,117.55 99.16,124.113 106.229,124.113C113.305,124.113 119,117.543 119,109.383L119,45.526L137.956,45.526C137.967,45.526 137.979,45.526 137.99,45.526C144.814,45.526 150.43,39.91 150.43,33.086C150.43,33.075 150.43,33.063 150.43,33.052L150.43,32.473C150.43,32.463 150.43,32.454 150.43,32.444C150.43,25.617 144.813,20 137.986,20C137.976,20 137.966,20 137.956,20L105.94,20Z" style="fill-rule:nonzero;stroke:white;stroke-width:3.93px;"/>
        <circle cx="137.666" cy="32.771" r="4.908" style="fill:rgb(51,51,51);"/>
        <circle cx="106.229" cy="32.771" r="4.908" style="fill:rgb(51,51,51);"/>
        <circle cx="106.229" cy="48.49" r="4.908" style="fill:rgb(51,51,51);"/>
        <circle cx="106.229" cy="64.201" r="4.908" style="fill:rgb(51,51,51);"/>
        <circle cx="106.229" cy="79.92" r="4.908" style="fill:rgb(51,51,51);"/>
        <circle cx="106.229" cy="95.639" r="4.908" style="fill:rgb(51,51,51);"/>
        <circle cx="106.229" cy="111.35" r="4.908" style="fill:rgb(51,51,51);"/>
    </g>
</svg>
